<svg xmlns="http://www.w3.org/2000/svg" viewBox="0 0 1200 720" role="img" aria-label="Original illustration: Brasília-inspired plaza">
  <defs>
    <linearGradient id="sky" x1="0" y1="0" x2="0" y2="1">
      <stop offset="0%" stop-color="#f3c98a"/>
      <stop offset="45%" stop-color="#e8d7b8"/>
      <stop offset="100%" stop-color="#c9b089"/>
    </linearGradient>
    <linearGradient id="ground" x1="0" y1="0" x2="0" y2="1">
      <stop offset="0%" stop-color="#8aa56a"/>
      <stop offset="100%" stop-color="#6d8a52"/>
    </linearGradient>
  </defs>
  <rect width="1200" height="720" fill="url(#sky)"/>
  <rect y="430" width="1200" height="290" fill="url(#ground)"/>
  <g opacity="0.35" fill="#6a7d55">
    <rect x="20" y="470" width="40" height="28"/>
    <rect x="70" y="455" width="28" height="44"/>
    <rect x="110" y="462" width="52" height="36"/>
    <rect x="980" y="448" width="36" height="52"/>
    <rect x="1030" y="460" width="70" height="40"/>
    <rect x="1110" y="452" width="44" height="48"/>
  </g>
  <ellipse cx="600" cy="560" rx="280" ry="36" fill="#7aa3c4" opacity="0.55"/>
  <rect x="520" y="250" width="52" height="250" fill="#d9d2c4"/>
  <rect x="628" y="250" width="52" height="250" fill="#cfc6b6"/>
  <rect x="520" y="250" width="160" height="18" fill="#b9b09e"/>
  <ellipse cx="600" cy="500" rx="92" ry="38" fill="#efe6d4"/>
  <ellipse cx="600" cy="492" rx="78" ry="28" fill="#f7f1e4"/>
  <rect x="430" y="508" width="340" height="10" fill="#d8cbb3"/>
  <circle cx="180" y="120" r="46" fill="#f6e2a8" opacity="0.85"/>
</svg>
